<svg width="35" height="31" viewBox="0 0 35 31" fill="none" xmlns="http://www.w3.org/2000/svg">
<path d="M23.7171 3.16666L25.4412 3.16666C26.7426 5.13903 27.5 7.50189 27.5 10.0417C27.5 12.5814 26.7425 14.9443 25.4412 16.9167L25.1957 16.9167C23.8518 16.9167 22.6392 17.6597 21.8098 18.7172C20.5212 20.3603 18.8972 21.7277 17.0408 22.7163C15.8372 23.3573 14.7929 24.3095 14.2864 25.5756C13.9321 26.4615 13.75 27.4069 13.75 28.361V29.4167C13.75 30.107 13.1904 30.6667 12.5 30.6667C10.4289 30.6667 8.75 28.9877 8.75 26.9167C8.75 24.9973 9.1826 23.1789 9.95562 21.5538C10.3983 20.6233 9.7773 19.4167 8.74682 19.4167L3.53712 19.4167C1.82606 19.4167 0.294498 18.26 0.113348 16.5586C0.0384255 15.8548 -1.89773e-07 15.1402 0 14.4167C1.24473e-06 9.67062 1.65313 5.3107 4.415 1.88129C5.06101 1.07913 6.05968 0.666656 7.08962 0.666656L13.7829 0.666658C14.589 0.666658 15.3899 0.796618 16.1546 1.05153L21.3454 2.78179C22.1101 3.0367 22.911 3.16666 23.7171 3.16666Z" fill="white"/>
<path d="M33.6142 17.3715C34.5087 15.1018 35 12.6291 35 10.0417C35 8.0082 34.6965 6.04562 34.1324 4.19673C33.7001 2.78003 32.3264 1.91666 30.8452 1.91666L29.3322 1.91666C28.5897 1.91666 28.1311 2.7471 28.4596 3.41299C29.4459 5.4118 30 7.66202 30 10.0417C30 12.8886 29.2069 15.5503 27.8295 17.8179C27.4212 18.4901 27.8766 19.4167 28.6631 19.4167H30.4177C31.8044 19.4167 33.1058 18.6616 33.6142 17.3715Z" fill="white"/>
</svg>
